<svg id="组件_96_6" data-name="组件 96 – 6" xmlns="http://www.w3.org/2000/svg" width="18" height="18" viewBox="0 0 18 18">
  <rect id="矩形_7748" data-name="矩形 7748" width="18" height="18" fill="#4159d1" opacity="0"/>
  <g id="组_5822" data-name="组 5822" transform="translate(-844 -488)">
    <path id="路径_1362" data-name="路径 1362" d="M858,496h-.75v-2.5a4.25,4.25,0,0,0-8.5,0V496H848a1,1,0,0,0-1,1v7a1,1,0,0,0,1,1h10a1,1,0,0,0,1-1v-7A1,1,0,0,0,858,496Zm-7.75-2.5a2.75,2.75,0,0,1,5.5,0V496h-5.5Zm7.25,10h-9v-6h9Z" fill="#c6c8cc"/>
    <rect id="矩形_7761" data-name="矩形 7761" width="2" height="3" rx="0.5" transform="translate(852 499)" fill="#c6c8cc"/>
  </g>
</svg>
